  <svg version="1.0" xmlns="http://www.w3.org/2000/svg"
   width="40" height="40" viewBox="0 0 1133.000000 956.000000"
   preserveAspectRatio="xMidYMid meet">

  <g transform="translate(0.000000,956.000000) scale(0.100000,-0.100000)"
  fill="#6366F1" stroke="none">
  <path d="M4390 9059 c-14 -6 -77 -13 -140 -16 -63 -3 -120 -10 -127 -15 -7 -6
  -41 -12 -75 -15 -35 -2 -80 -11 -101 -19 -20 -8 -62 -14 -91 -14 -32 0 -56 -5
  -58 -11 -2 -6 -27 -14 -56 -17 -28 -2 -57 -11 -63 -18 -6 -8 -28 -14 -48 -14
  -20 0 -45 -7 -55 -15 -11 -8 -36 -15 -55 -15 -20 0 -45 -7 -55 -15 -11 -8 -33
  -15 -49 -15 -15 0 -35 -7 -43 -15 -9 -8 -25 -15 -37 -15 -12 0 -31 -7 -41 -15
  -11 -8 -30 -15 -43 -15 -13 0 -23 -4 -23 -10 0 -5 -12 -12 -27 -16 -34 -7
  -123 -44 -195 -81 -14 -7 -33 -13 -42 -13 -9 0 -16 -4 -16 -10 0 -5 -12 -13
  -27 -16 -16 -4 -33 -11 -40 -16 -21 -17 -87 -48 -100 -48 -7 0 -13 -4 -13 -9
  0 -5 -12 -14 -27 -20 -16 -6 -55 -26 -88 -46 -33 -19 -67 -38 -75 -42 -8 -3
  -17 -9 -20 -12 -14 -16 -71 -51 -84 -51 -7 0 -16 -7 -20 -15 -3 -8 -10 -15
  -16 -15 -6 0 -17 -6 -24 -12 -8 -7 -24 -20 -36 -28 -12 -8 -28 -21 -36 -27 -7
  -7 -17 -13 -22 -13 -8 0 -87 -56 -119 -85 -6 -5 -26 -21 -44 -35 -18 -14 -43
  -34 -55 -45 -12 -11 -44 -38 -70 -60 -26 -22 -56 -48 -66 -57 -10 -10 -21 -18
  -25 -18 -3 0 -23 -17 -43 -37 -21 -21 -63 -60 -93 -87 -31 -27 -59 -57 -62
  -67 -4 -11 -13 -19 -21 -19 -8 0 -14 -4 -14 -9 0 -5 -17 -26 -38 -48 -20 -22
  -46 -51 -57 -66 -11 -14 -26 -26 -32 -27 -7 0 -13 -4 -13 -10 0 -11 -7 -19
  -68 -87 -58 -65 -72 -83 -72 -93 0 -5 -9 -14 -20 -20 -11 -6 -20 -19 -20 -28
  0 -10 -12 -29 -28 -42 -15 -14 -33 -37 -39 -52 -7 -16 -17 -28 -23 -28 -5 0
  -10 -9 -10 -19 0 -11 -8 -26 -17 -33 -20 -15 -38 -41 -53 -75 -5 -13 -16 -23
  -25 -23 -9 0 -15 -9 -15 -25 0 -14 -7 -28 -15 -31 -8 -4 -15 -17 -15 -31 0
  -16 -7 -27 -20 -30 -12 -3 -20 -14 -20 -27 0 -12 -9 -29 -20 -39 -11 -9 -20
  -26 -20 -37 0 -11 -7 -20 -15 -20 -9 0 -15 -9 -15 -21 0 -11 -9 -32 -20 -46
  -11 -14 -20 -31 -20 -38 0 -7 -7 -18 -15 -25 -8 -7 -15 -25 -15 -41 0 -15 -7
  -32 -15 -37 -9 -4 -17 -18 -20 -30 -2 -12 -11 -29 -19 -38 -9 -8 -16 -28 -16
  -42 0 -15 -9 -35 -20 -45 -12 -10 -20 -29 -20 -47 0 -18 -6 -33 -15 -36 -9 -4
  -15 -19 -15 -35 0 -16 -9 -38 -20 -49 -12 -12 -20 -33 -20 -55 0 -18 -6 -38
  -14 -42 -7 -4 -16 -30 -19 -57 -3 -30 -11 -52 -21 -58 -10 -6 -16 -23 -16 -47
  0 -22 -6 -44 -15 -51 -9 -7 -15 -29 -15 -51 0 -40 -17 -89 -32 -89 -4 0 -8
  -26 -8 -58 0 -35 -6 -66 -15 -79 -8 -12 -17 -51 -19 -87 -3 -42 -10 -71 -20
  -82 -12 -12 -16 -37 -16 -107 0 -59 -5 -102 -14 -119 -40 -77 -40 -1025 0
  -1083 10 -13 14 -50 14 -115 0 -67 5 -104 16 -125 9 -16 18 -55 21 -84 2 -30
  11 -64 19 -75 8 -12 14 -44 14 -75 0 -35 6 -61 15 -71 9 -10 18 -40 22 -69 3
  -28 12 -56 19 -62 8 -6 14 -30 14 -54 0 -29 6 -47 20 -60 13 -12 20 -31 20
  -54 0 -20 7 -45 15 -55 8 -11 15 -31 15 -44 0 -13 9 -35 20 -49 11 -14 20 -36
  20 -49 0 -12 7 -29 15 -38 8 -8 15 -26 15 -39 0 -13 9 -36 20 -50 11 -14 20
  -34 20 -45 0 -11 6 -22 14 -25 7 -3 16 -23 20 -45 3 -22 13 -42 21 -46 8 -3
  15 -15 15 -26 0 -11 9 -29 20 -40 11 -11 20 -28 20 -37 0 -10 7 -27 15 -37 8
  -11 15 -27 15 -36 0 -8 9 -23 20 -33 11 -9 20 -25 20 -36 0 -10 7 -21 15 -25
  8 -3 15 -17 15 -31 0 -15 6 -25 14 -25 8 0 18 -10 22 -22 3 -13 21 -41 38 -63
  17 -22 40 -58 51 -80 11 -22 28 -46 38 -53 9 -7 17 -22 17 -33 0 -10 5 -19 10
  -19 6 0 15 -11 20 -25 5 -14 17 -28 25 -31 8 -4 15 -12 15 -20 0 -8 5 -14 11
  -14 5 0 15 -13 20 -30 6 -16 14 -30 19 -30 4 0 20 -19 36 -42 28 -40 70 -92
  106 -130 10 -10 18 -22 18 -28 0 -5 6 -10 13 -10 6 0 23 -16 37 -36 31 -44
  239 -255 304 -309 27 -22 66 -56 86 -75 65 -60 102 -90 110 -90 4 0 10 -7 14
  -15 3 -8 12 -15 21 -15 8 0 15 -4 15 -9 0 -5 9 -13 20 -16 11 -3 20 -13 20
  -21 0 -8 6 -14 13 -14 6 0 28 -14 47 -30 19 -16 40 -34 47 -40 7 -5 16 -10 21
  -10 5 0 45 -27 90 -60 45 -33 86 -60 91 -60 5 0 16 -6 23 -13 23 -22 118 -77
  133 -77 9 0 18 -6 21 -14 3 -8 26 -24 52 -36 26 -12 74 -37 107 -56 33 -18 67
  -36 75 -40 8 -3 56 -26 107 -50 50 -24 98 -44 105 -44 8 0 23 -7 34 -15 10 -8
  26 -15 34 -15 8 0 27 -6 42 -14 15 -8 40 -17 57 -21 17 -4 31 -11 31 -16 0 -5
  13 -9 28 -9 16 0 37 -7 48 -15 10 -8 31 -15 45 -15 14 0 34 -7 45 -15 10 -8
  33 -15 49 -15 17 0 40 -6 51 -14 11 -8 37 -17 57 -21 21 -4 40 -11 43 -16 3
  -5 23 -9 46 -9 22 0 54 -6 71 -14 18 -8 52 -17 77 -19 24 -3 46 -11 48 -16 2
  -6 25 -11 52 -11 27 0 61 -5 77 -11 15 -7 70 -15 121 -19 52 -3 97 -11 100
  -17 4 -6 69 -12 162 -15 85 -3 168 -10 183 -17 37 -14 316 -15 354 0 15 6 96
  13 178 16 95 3 164 10 188 19 20 8 66 14 101 14 35 0 83 7 106 15 23 8 63 15
  89 15 25 0 55 7 65 15 11 8 36 15 57 15 20 0 50 7 65 15 16 8 45 15 64 15 19
  1 46 7 60 15 14 8 37 14 53 15 15 0 27 4 27 10 0 5 17 12 38 15 20 3 49 13 64
  21 14 8 37 14 50 14 12 0 32 7 42 15 11 8 32 15 47 15 14 0 32 7 39 15 7 8 22
  15 34 15 11 0 30 7 40 15 11 8 28 15 39 15 10 0 25 7 33 15 9 8 24 15 35 15
  11 0 27 7 35 15 9 8 24 15 35 15 11 0 27 7 35 15 9 8 24 15 33 15 10 0 24 7
  31 15 7 8 20 15 29 15 9 0 36 14 61 30 25 16 53 30 63 30 9 0 17 5 17 10 0 6
  5 10 11 10 16 0 313 180 400 243 41 29 92 63 114 77 22 13 45 29 51 35 7 5 26
  21 44 35 42 32 99 80 122 102 10 10 20 18 23 18 2 0 20 15 39 32 19 18 47 43
  63 55 36 28 83 74 156 151 32 34 61 62 65 63 4 0 25 21 47 45 22 25 58 64 80
  88 22 23 56 63 75 89 19 25 40 47 46 47 5 0 23 20 38 45 16 25 33 45 37 45 5
  0 9 4 9 10 0 9 19 36 50 69 8 9 21 29 27 44 7 15 17 27 23 27 5 0 10 5 10 10
  0 5 9 20 20 32 43 49 50 58 50 69 0 6 8 21 18 34 9 12 24 33 32 45 8 13 23 31
  32 41 10 10 20 30 24 43 3 14 12 27 20 30 8 3 14 14 14 25 0 11 5 23 11 27 6
  3 17 21 25 38 16 34 30 59 57 95 9 13 17 32 17 43 0 10 7 21 15 24 8 4 15 16
  15 29 0 12 9 30 20 40 11 10 20 26 20 35 0 10 7 23 15 30 8 7 15 25 15 40 0
  15 9 37 20 50 11 13 20 33 20 46 0 12 6 29 14 37 8 8 18 30 21 50 4 20 13 38
  21 41 9 3 14 20 14 46 0 25 5 43 14 46 7 3 17 23 20 46 4 22 13 47 21 55 9 8
  15 33 15 56 0 24 6 51 14 62 7 11 17 40 21 65 4 25 13 55 21 67 8 12 14 44 14
  70 0 29 7 58 16 72 11 15 19 51 21 95 3 39 11 81 19 93 9 14 14 49 14 96 0 44
  7 93 16 118 12 32 18 93 21 224 4 130 9 183 18 190 10 8 14 84 17 325 4 256 8
  324 21 365 9 28 17 82 17 121 0 51 4 75 15 84 9 7 15 29 15 55 0 27 7 51 20
  68 11 14 20 39 20 55 0 16 7 35 15 42 8 7 15 23 15 36 0 13 9 33 20 44 11 11
  20 27 20 35 0 9 6 18 14 21 8 3 18 19 21 35 4 16 10 29 14 29 5 0 34 25 66 55
  32 31 79 70 104 88 58 40 191 107 213 107 9 0 19 4 22 9 3 4 39 14 80 20 72
  12 75 11 100 -10 25 -22 26 -27 26 -130 l0 -107 39 -41 c36 -38 43 -41 91 -41
  28 0 58 6 65 13 29 25 40 33 58 40 9 3 17 11 17 17 0 5 5 10 11 10 5 0 30 15
  53 33 24 17 54 39 66 47 28 19 79 61 100 81 9 8 24 18 33 22 9 3 17 11 17 17
  0 5 5 10 10 10 11 0 63 34 88 58 7 6 17 12 21 12 4 0 22 12 39 28 17 15 46 38
  64 52 18 14 40 32 48 41 9 8 24 18 33 22 9 3 17 11 17 17 0 5 4 10 10 10 12 0
  154 100 158 112 2 4 8 8 14 8 19 0 88 84 89 110 3 59 -1 83 -15 99 -9 10 -16
  23 -16 29 0 7 -7 12 -15 12 -8 0 -15 5 -15 10 0 6 -7 13 -15 17 -15 5 -58 39
  -96 76 -11 9 -25 17 -33 17 -7 0 -19 7 -26 15 -7 8 -17 15 -22 15 -9 0 -32 19
  -89 73 -11 9 -21 17 -24 17 -3 0 -18 13 -33 28 -15 16 -35 31 -45 35 -9 3 -17
  11 -17 17 0 5 -8 10 -18 10 -17 0 -30 8 -79 50 -7 5 -17 10 -22 10 -6 0 -14 6
  -18 13 -4 7 -28 28 -53 47 -25 19 -46 38 -48 42 -2 4 -22 16 -45 27 -23 11
  -56 33 -74 49 -17 16 -38 32 -47 35 -9 4 -16 11 -16 17 0 5 -7 10 -15 10 -8 0
  -15 5 -15 10 0 6 -8 14 -17 17 -10 4 -24 13 -31 20 -18 17 -64 17 -88 -2 -10
  -8 -27 -15 -36 -15 -10 0 -18 -7 -18 -15 0 -8 -6 -15 -14 -15 -20 0 -26 -32
  -26 -143 0 -84 -3 -103 -21 -128 -19 -27 -25 -29 -85 -29 -45 0 -70 -5 -80
  -15 -11 -10 -36 -15 -78 -15 -44 0 -67 -5 -76 -15 -7 -9 -29 -15 -52 -15 -25
  0 -41 -5 -44 -15 -4 -9 -19 -15 -38 -15 -17 0 -40 -7 -50 -15 -11 -8 -32 -15
  -47 -15 -15 0 -29 -7 -33 -15 -3 -9 -18 -15 -36 -15 -16 0 -30 -4 -30 -9 0
  -11 -75 -51 -94 -51 -8 0 -16 -7 -20 -15 -3 -8 -15 -15 -26 -15 -11 0 -20 -4
  -20 -10 0 -5 -11 -12 -24 -16 -14 -3 -27 -12 -30 -20 -3 -8 -12 -14 -21 -14
  -8 0 -15 -3 -15 -8 0 -4 -28 -28 -62 -52 -34 -25 -92 -75 -130 -112 -37 -38
  -72 -68 -78 -68 -5 0 -10 -9 -10 -20 0 -11 -7 -23 -15 -26 -8 -3 -17 -14 -20
  -25 -4 -10 -13 -19 -21 -19 -8 0 -14 -6 -14 -14 0 -8 -16 -31 -35 -50 -19 -20
  -35 -45 -35 -56 0 -11 -9 -24 -20 -30 -11 -6 -20 -21 -20 -34 0 -13 -6 -26
  -14 -29 -8 -3 -17 -19 -21 -36 -3 -16 -13 -35 -21 -42 -8 -6 -14 -19 -14 -29
  0 -10 -6 -23 -14 -29 -8 -7 -17 -27 -20 -45 -4 -19 -13 -39 -21 -46 -8 -7 -15
  -25 -15 -41 0 -15 -6 -34 -14 -41 -7 -8 -17 -34 -21 -58 -4 -24 -14 -50 -21
  -58 -8 -8 -14 -34 -14 -63 0 -27 -6 -65 -14 -83 -7 -18 -17 -69 -21 -113 -4
  -45 -13 -93 -20 -107 -11 -20 -14 -133 -15 -545 0 -285 -3 -529 -6 -542 -16
  -63 -33 -191 -34 -249 0 -36 -7 -76 -15 -90 -8 -14 -14 -52 -15 -87 0 -43 -5
  -66 -16 -78 -9 -9 -19 -42 -23 -76 -4 -32 -13 -65 -19 -71 -7 -7 -12 -28 -12
  -47 0 -20 -9 -47 -20 -61 -11 -14 -20 -41 -20 -61 0 -22 -6 -39 -14 -42 -7 -3
  -16 -23 -20 -45 -3 -22 -13 -42 -21 -46 -9 -3 -15 -18 -15 -40 0 -19 -6 -41
  -14 -48 -7 -8 -17 -29 -21 -47 -4 -18 -13 -35 -21 -38 -8 -3 -14 -16 -14 -28
  0 -13 -7 -30 -15 -39 -8 -8 -18 -29 -22 -46 -3 -18 -12 -34 -19 -37 -8 -3 -14
  -15 -14 -27 0 -12 -9 -29 -20 -39 -11 -9 -20 -25 -20 -36 0 -10 -7 -21 -15
  -25 -8 -3 -15 -14 -15 -24 0 -10 -9 -27 -20 -37 -11 -10 -20 -24 -20 -32 0 -7
  -7 -16 -15 -19 -8 -4 -15 -14 -15 -24 0 -9 -9 -25 -20 -35 -11 -10 -20 -23
  -20 -28 0 -5 -16 -29 -35 -53 -19 -23 -35 -47 -35 -53 0 -5 -6 -14 -13 -18 -7
  -4 -18 -20 -24 -35 -7 -16 -17 -28 -23 -28 -5 0 -10 -6 -10 -13 0 -7 -16 -30
  -35 -51 -19 -21 -35 -40 -35 -42 0 -4 -13 -19 -65 -76 -19 -21 -39 -47 -45
  -58 -18 -34 -43 -60 -57 -60 -7 0 -13 -7 -13 -15 0 -8 -6 -15 -12 -15 -7 -1
  -22 -13 -33 -27 -28 -36 -141 -153 -148 -153 -3 0 -28 -21 -55 -47 -68 -65
  -113 -103 -122 -103 -4 0 -10 -7 -14 -15 -3 -8 -10 -15 -16 -15 -6 0 -24 -14
  -40 -30 -16 -17 -33 -30 -39 -30 -5 0 -11 -7 -15 -15 -3 -8 -10 -15 -15 -15
  -6 0 -21 -10 -35 -23 -13 -12 -45 -33 -72 -47 -26 -14 -61 -37 -78 -52 -17
  -16 -34 -28 -39 -28 -5 0 -15 -7 -23 -15 -9 -8 -24 -15 -34 -15 -10 0 -20 -7
  -24 -15 -3 -8 -12 -15 -20 -15 -7 0 -16 -7 -20 -15 -3 -8 -15 -15 -26 -15 -11
  0 -20 -4 -20 -10 0 -5 -6 -10 -14 -10 -7 0 -25 -9 -39 -20 -14 -11 -35 -20
  -46 -20 -12 0 -21 -4 -21 -8 0 -9 -81 -52 -99 -52 -6 0 -11 -4 -11 -10 0 -5
  -15 -12 -34 -16 -19 -3 -37 -12 -40 -20 -3 -8 -17 -14 -31 -14 -15 0 -33 -7
  -41 -15 -9 -8 -26 -15 -38 -15 -13 0 -29 -7 -36 -15 -7 -8 -23 -15 -35 -15
  -12 0 -28 -7 -35 -15 -7 -8 -23 -15 -35 -15 -13 0 -36 -7 -51 -15 -16 -8 -41
  -15 -56 -15 -16 0 -28 -4 -28 -10 0 -5 -17 -12 -37 -16 -21 -4 -50 -13 -65
  -20 -15 -8 -43 -14 -62 -14 -19 0 -37 -4 -41 -9 -5 -9 -52 -18 -120 -24 -11
  -1 -26 -8 -33 -15 -7 -6 -32 -12 -56 -12 -23 0 -47 -5 -54 -12 -6 -6 -55 -15
  -109 -19 -54 -4 -125 -12 -158 -18 -78 -12 -624 -12 -695 0 -30 5 -100 13
  -154 17 -62 5 -101 13 -104 20 -2 7 -25 12 -55 12 -29 1 -63 7 -77 15 -14 8
  -45 14 -70 15 -25 0 -58 7 -74 15 -15 8 -43 15 -61 15 -19 0 -40 6 -47 13 -7
  8 -33 17 -56 21 -24 3 -51 10 -60 15 -26 13 -83 32 -129 44 -24 6 -43 14 -43
  19 0 4 -13 8 -29 8 -16 0 -34 7 -41 15 -7 8 -23 15 -35 15 -12 0 -28 7 -35 15
  -7 8 -23 15 -35 15 -12 0 -28 7 -35 15 -7 8 -19 15 -27 15 -13 0 -47 15 -93
  41 -8 5 -25 13 -37 18 -11 6 -24 15 -28 20 -3 6 -17 11 -31 11 -14 0 -27 7
  -30 15 -4 8 -13 15 -21 15 -17 0 -86 39 -91 52 -2 4 -10 8 -18 8 -8 0 -17 7
  -20 15 -4 8 -16 15 -28 15 -12 0 -36 13 -54 30 -18 16 -36 30 -40 30 -4 0 -15
  8 -24 18 -29 31 -47 42 -65 42 -10 0 -31 14 -47 30 -16 17 -33 30 -37 30 -4 0
  -29 20 -56 45 -26 25 -53 45 -60 45 -7 0 -13 7 -13 15 0 8 -5 15 -10 15 -6 0
  -24 13 -40 30 -16 16 -33 30 -38 30 -4 0 -19 13 -32 30 -14 16 -30 29 -35 30
  -6 0 -22 13 -35 30 -14 16 -29 29 -33 30 -13 0 -97 83 -97 95 0 6 -9 16 -20
  23 -12 7 -18 17 -15 22 3 6 -1 10 -10 10 -8 0 -18 7 -21 15 -4 8 -10 15 -16
  15 -15 0 -57 53 -58 73 0 9 -4 17 -9 17 -13 0 -61 45 -61 56 -1 14 -48 64 -60
  64 -5 0 -10 5 -10 12 0 19 -44 78 -57 78 -7 0 -13 9 -13 20 0 11 -9 28 -20 37
  -11 10 -20 23 -20 30 0 6 -16 29 -35 50 -19 21 -35 46 -35 56 0 9 -6 17 -14
  17 -8 0 -17 13 -21 29 -3 16 -13 32 -21 35 -8 3 -14 15 -14 26 0 11 -6 23 -14
  26 -8 3 -18 18 -21 34 -3 16 -13 31 -21 34 -8 3 -14 17 -14 31 0 15 -6 25 -14
  25 -8 0 -18 14 -21 32 -4 17 -14 38 -21 46 -8 7 -14 24 -14 37 0 14 -9 29 -20
  35 -12 6 -20 21 -20 36 0 13 -7 27 -15 30 -9 4 -15 19 -15 38 0 20 -7 35 -20
  44 -14 8 -20 23 -20 46 0 21 -6 36 -15 40 -9 3 -15 18 -15 39 0 21 -8 41 -20
  52 -14 13 -20 31 -20 61 0 25 -6 46 -13 51 -8 4 -17 25 -20 46 -3 20 -13 44
  -21 53 -11 10 -16 34 -16 75 0 46 -4 63 -20 79 -14 14 -20 33 -20 66 0 27 -6
  51 -15 60 -11 11 -15 39 -16 97 -1 45 -1 85 0 90 0 4 -5 7 -13 7 -20 0 -23 14
  -24 119 -1 51 -3 100 -6 110 -28 96 -29 746 -1 790 2 4 5 46 6 95 2 67 7 92
  21 108 14 16 18 38 18 97 0 51 5 84 14 97 8 12 16 42 17 69 2 27 10 57 21 70
  12 16 18 40 18 78 0 38 4 57 14 60 8 3 18 26 21 51 4 25 13 51 21 57 8 6 14
  28 14 49 0 21 7 43 15 50 8 7 18 30 21 51 4 21 13 40 20 43 8 3 14 20 14 39 0
  21 8 41 20 52 12 11 20 31 20 52 0 23 5 33 15 33 9 0 15 9 15 25 0 14 8 29 20
  35 14 8 20 21 20 46 0 22 6 37 15 40 8 4 15 15 15 25 0 11 9 27 20 36 11 10
  20 26 20 36 0 9 6 20 14 23 8 3 16 18 20 35 3 17 12 29 21 29 9 0 15 9 15 25
  0 14 6 28 14 31 8 3 18 19 21 35 4 16 13 29 21 29 8 0 14 10 14 25 0 14 8 29
  20 35 11 6 20 20 20 31 0 11 7 22 15 25 8 4 15 11 15 18 0 6 18 31 40 55 22
  25 40 48 40 53 0 5 14 22 30 38 16 16 30 34 30 40 0 6 25 36 55 66 30 31 55
  61 55 67 0 15 44 57 59 57 6 0 11 6 11 13 0 7 8 20 18 29 9 9 28 30 42 47 13
  17 30 31 37 31 7 0 13 7 13 15 0 8 7 15 15 15 8 0 15 7 15 15 0 8 6 15 13 15
  6 1 23 15 37 31 32 40 110 119 116 119 3 0 15 9 27 21 12 11 33 29 47 39 106
  80 162 120 171 120 5 0 12 7 15 15 4 8 10 15 15 15 10 0 26 12 57 41 9 9 42
  31 72 49 30 19 62 39 70 46 8 6 42 26 75 44 33 18 62 36 65 39 3 4 28 18 55
  32 28 13 56 30 63 37 7 6 22 12 32 12 10 0 22 5 25 10 7 11 88 50 104 50 6 0
  11 5 11 10 0 6 6 10 13 10 6 1 30 9 52 20 22 11 48 19 58 20 9 0 17 4 17 9 0
  5 12 12 28 15 15 4 41 13 57 20 68 31 157 62 260 91 33 9 69 20 80 25 22 10
  83 24 190 45 39 7 81 17 95 22 14 5 48 11 75 12 28 2 55 7 61 12 6 5 42 11 80
  13 38 2 98 10 134 17 86 17 712 18 785 2 28 -7 84 -15 125 -18 41 -4 82 -9 90
  -13 8 -3 49 -11 90 -18 41 -7 104 -18 140 -24 36 -6 72 -14 80 -19 9 -5 36
  -12 60 -16 25 -4 50 -11 55 -15 6 -4 31 -11 57 -14 26 -4 50 -11 53 -17 4 -5
  16 -9 28 -9 12 -1 40 -9 62 -20 22 -11 47 -19 56 -20 15 0 59 -18 101 -41 10
  -5 23 -9 29 -9 13 0 69 -24 121 -51 20 -10 44 -19 52 -19 9 0 16 -4 16 -10 0
  -5 7 -10 16 -10 9 0 39 -13 66 -30 26 -16 53 -30 60 -30 6 0 32 -13 57 -29 26
  -15 57 -32 69 -35 12 -4 22 -12 22 -17 0 -5 5 -9 11 -9 6 0 45 -20 86 -45 40
  -25 77 -45 82 -45 7 0 21 -11 68 -50 6 -5 47 -33 90 -62 43 -29 80 -56 81 -60
  2 -5 9 -8 16 -8 6 0 19 -8 27 -17 9 -10 33 -31 54 -48 20 -16 51 -42 67 -57
  16 -16 31 -28 34 -28 2 0 18 -13 34 -30 16 -16 32 -30 36 -30 10 0 134 -131
  134 -141 0 -5 7 -9 15 -9 8 0 15 -7 15 -15 0 -8 7 -15 15 -15 9 0 18 -7 21
  -15 5 -11 22 -15 69 -15 43 0 66 5 75 15 7 8 18 15 24 15 7 0 23 18 35 41 17
  30 22 51 18 79 -5 41 -12 52 -69 110 -21 21 -38 46 -38 54 0 9 -4 16 -8 16 -4
  0 -26 17 -49 38 -23 20 -62 55 -88 77 -42 36 -74 65 -157 141 -14 13 -29 24
  -32 24 -3 0 -14 8 -25 18 -58 54 -240 192 -253 192 -5 0 -15 6 -22 13 -8 6
  -24 19 -36 27 -12 8 -28 20 -34 26 -7 6 -22 15 -34 18 -12 4 -22 12 -22 17 0
  5 -5 9 -10 9 -12 0 -73 41 -78 53 -2 4 -11 7 -21 7 -9 0 -22 5 -28 11 -13 13
  -37 27 -110 63 -28 14 -55 31 -58 36 -3 6 -15 10 -25 10 -10 0 -25 7 -34 15
  -8 8 -19 15 -25 15 -6 0 -37 14 -68 30 -31 17 -61 30 -68 30 -7 0 -18 7 -25
  15 -7 8 -22 15 -34 15 -11 0 -30 7 -40 15 -11 8 -27 15 -37 15 -9 0 -22 7 -29
  15 -7 8 -24 15 -39 15 -14 1 -37 7 -51 15 -14 8 -35 14 -47 15 -12 0 -28 7
  -37 15 -8 8 -26 15 -40 15 -13 0 -31 7 -40 15 -8 8 -30 15 -48 15 -18 1 -44 7
  -58 15 -14 8 -41 14 -61 15 -19 0 -44 7 -55 15 -10 8 -35 15 -55 15 -19 0 -44
  7 -55 15 -10 8 -41 15 -67 15 -26 0 -64 7 -84 15 -19 8 -58 15 -85 15 -28 0
  -64 6 -81 14 -19 8 -81 16 -147 19 -63 3 -128 10 -144 16 -36 14 -670 14 -706
  0z"/>
  <path d="M6435 7775 c-22 -8 -47 -15 -56 -15 -9 0 -22 -7 -29 -15 -7 -8 -21
  -15 -31 -15 -9 0 -24 -7 -33 -15 -8 -8 -19 -15 -25 -15 -6 0 -11 -5 -11 -10 0
  -6 -7 -13 -16 -17 -26 -10 -91 -76 -98 -100 -4 -11 -13 -24 -21 -27 -8 -3 -15
  -12 -15 -19 0 -8 -7 -20 -15 -27 -8 -7 -15 -23 -15 -37 0 -13 -9 -33 -19 -44
  -14 -16 -21 -40 -24 -93 -2 -39 -3 -1035 -3 -2213 l1 -2141 23 -24 c12 -14 22
  -34 22 -45 0 -11 7 -26 15 -33 8 -7 15 -20 15 -29 0 -9 9 -22 20 -29 11 -7 20
  -17 20 -24 0 -13 77 -88 91 -88 5 0 12 -7 15 -15 4 -8 14 -15 24 -15 10 0 25
  -7 34 -15 8 -8 26 -15 40 -15 13 0 32 -7 41 -16 24 -24 282 -24 316 0 13 9 34
  16 46 16 48 0 231 156 254 217 4 12 13 23 17 23 5 0 12 18 15 41 3 22 12 48
  21 58 15 16 16 217 14 2215 -3 1777 -5 2198 -16 2205 -7 4 -16 25 -19 47 -7
  40 -39 104 -53 104 -5 0 -12 9 -15 20 -8 24 -79 100 -94 100 -6 0 -14 6 -18
  13 -13 21 -131 77 -162 77 -16 0 -33 6 -39 13 -16 19 -167 20 -217 2z"/>
  <path d="M4590 7024 c-14 -7 -42 -14 -62 -14 -21 0 -38 -3 -38 -7 0 -5 -28
  -21 -62 -38 -79 -39 -198 -155 -198 -194 0 -9 -9 -24 -20 -34 -11 -9 -20 -29
  -20 -45 0 -15 -7 -37 -15 -48 -22 -29 -22 -3629 0 -3658 8 -11 15 -33 15 -48
  0 -16 9 -38 20 -50 11 -12 20 -28 20 -36 0 -7 6 -19 13 -27 6 -7 33 -38 59
  -67 26 -30 68 -64 93 -77 25 -12 45 -27 45 -32 0 -5 11 -9 25 -9 14 0 38 -8
  52 -17 38 -25 302 -25 328 0 9 9 27 17 40 17 12 0 25 7 29 15 3 8 16 15 28 15
  13 0 38 13 56 30 18 17 37 30 43 30 5 0 9 5 9 10 0 6 9 20 20 33 43 46 48 53
  69 87 11 19 21 43 21 52 0 9 8 21 18 27 16 9 17 109 17 1871 0 1762 -1 1862
  -17 1871 -10 6 -18 20 -18 31 0 23 -47 98 -61 98 -5 0 -9 6 -9 14 0 13 -44 66
  -55 66 -3 0 -19 14 -35 30 -16 17 -33 30 -38 30 -5 0 -15 7 -22 15 -7 8 -23
  15 -36 15 -13 0 -27 6 -31 14 -4 7 -31 16 -60 19 -28 3 -60 10 -71 16 -28 15
  -122 12 -152 -5z"/>
  <path d="M2696 6131 c-4 -5 -24 -12 -45 -16 -22 -4 -45 -13 -52 -21 -6 -8 -17
  -14 -24 -14 -28 0 -154 -98 -155 -122 0 -4 -10 -18 -22 -32 -42 -45 -48 -55
  -48 -80 0 -13 -6 -26 -14 -29 -8 -3 -17 -21 -21 -39 -4 -18 -14 -42 -21 -53
  -21 -30 -21 -2681 0 -2711 8 -11 17 -37 20 -59 4 -22 13 -43 21 -48 8 -4 15
  -19 15 -32 0 -14 5 -25 10 -25 6 0 16 -12 23 -27 12 -28 47 -65 100 -106 16
  -12 34 -27 40 -32 28 -24 68 -45 86 -45 11 0 27 -7 36 -16 24 -24 301 -25 336
  -1 13 10 33 17 45 17 12 0 27 7 34 15 7 8 19 15 27 15 7 0 16 7 19 15 4 8 12
  15 20 15 8 0 14 4 14 9 0 5 15 19 33 31 19 13 45 39 58 59 13 20 29 40 36 44
  7 4 13 19 13 32 0 13 7 28 15 33 10 5 18 29 22 63 3 29 12 58 19 62 12 7 14
  231 14 1329 0 1168 -2 1323 -15 1338 -9 9 -18 41 -21 71 -3 30 -12 61 -20 70
  -8 8 -14 23 -14 32 0 17 -45 67 -60 67 -6 0 -10 11 -10 25 0 14 -6 25 -13 25
  -7 0 -24 13 -37 30 -14 16 -30 29 -36 30 -6 0 -17 7 -24 15 -7 8 -21 15 -31
  15 -9 0 -24 7 -33 15 -8 8 -25 15 -38 15 -13 0 -33 7 -44 15 -14 11 -49 14
  -136 15 -64 0 -119 -4 -122 -9z"/>
  </g>
  </svg>
