<?xml version="1.0" standalone="no"?>
<!DOCTYPE svg PUBLIC "-//W3C//DTD SVG 20010904//EN"
 "http://www.w3.org/TR/2001/REC-SVG-20010904/DTD/svg10.dtd">
<svg version="1.0" xmlns="http://www.w3.org/2000/svg"
 width="1200.000000pt" height="900.000000pt" viewBox="0 0 1200.000000 900.000000"
 preserveAspectRatio="xMidYMid meet">

<g transform="translate(0.000000,900.000000) scale(0.100000,-0.100000)"
fill="#55588B" stroke="none">
<path d="M5855 8979 c-66 -5 -136 -13 -156 -19 -20 -5 -55 -10 -77 -10 -84 0
-422 -67 -607 -120 -16 -4 -55 -15 -85 -24 -105 -29 -325 -108 -453 -162 -524
-223 -972 -522 -1381 -923 -457 -449 -802 -964 -1026 -1531 -29 -74 -59 -148
-66 -165 -26 -65 -94 -291 -94 -315 0 -14 -4 -30 -9 -35 -12 -12 -59 -204 -67
-272 -3 -26 -10 -59 -15 -73 -5 -14 -14 -59 -20 -100 -6 -41 -15 -104 -21
-140 -29 -189 -40 -692 -20 -985 6 -88 23 -227 37 -310 14 -82 30 -177 35
-210 6 -33 24 -109 40 -170 17 -60 35 -130 40 -154 27 -120 112 -360 217 -606
86 -202 220 -442 378 -680 642 -963 1631 -1639 2752 -1880 157 -34 228 -45
408 -65 44 -5 118 -13 165 -19 208 -24 783 -8 990 29 30 6 84 15 120 21 151
25 180 31 280 55 510 123 1015 347 1450 642 450 305 842 693 1162 1148 297
425 547 968 664 1444 7 30 20 82 28 115 9 33 16 74 16 90 0 17 4 35 9 40 9 9
20 76 61 360 35 240 38 764 6 1030 -23 186 -57 388 -67 400 -5 5 -9 25 -9 45
0 19 -7 60 -16 90 -8 30 -21 80 -29 110 -30 123 -38 150 -72 255 -40 122 -104
296 -127 347 -8 18 -29 67 -47 108 -75 177 -211 426 -336 619 -307 471 -708
889 -1167 1215 -340 242 -765 459 -1157 590 -257 85 -605 165 -814 186 -49 6
-121 14 -160 19 -101 14 -619 21 -760 10z m625 -344 c275 -19 456 -49 735
-120 1151 -297 2155 -1129 2672 -2215 105 -222 116 -249 193 -482 34 -101 65
-191 71 -200 5 -10 9 -28 9 -40 0 -13 7 -48 16 -78 9 -30 20 -75 25 -100 67
-339 70 -360 90 -693 17 -279 -4 -666 -50 -912 -11 -60 -25 -141 -32 -180 -6
-38 -15 -79 -20 -90 -5 -11 -16 -49 -23 -85 -22 -103 -128 -412 -196 -570
-249 -585 -610 -1088 -1077 -1500 -421 -372 -890 -644 -1413 -821 -141 -47
-395 -115 -515 -138 -33 -6 -85 -16 -115 -21 -248 -47 -828 -61 -1120 -27
-267 30 -572 99 -835 189 -1027 348 -1882 1096 -2376 2079 -27 54 -49 100 -49
103 0 3 -15 39 -34 78 -33 71 -116 279 -116 293 0 4 -6 21 -13 38 -12 29 -37
105 -73 227 -24 83 -53 214 -79 355 -14 77 -32 174 -40 215 -26 136 -39 525
-26 794 7 133 19 273 26 311 8 39 26 138 40 220 14 83 28 157 30 165 22 88
109 389 120 415 4 11 23 61 42 110 161 425 374 797 667 1165 131 164 456 489
626 624 239 191 535 378 796 503 274 130 530 221 809 288 255 60 401 83 640
100 238 16 360 16 595 0z"/>
<path d="M4130 7326 c0 -18 7 -50 15 -69 8 -20 15 -65 15 -99 0 -77 20 -230
31 -242 5 -6 9 -38 9 -72 0 -114 15 -119 117 -39 39 30 74 55 78 55 4 0 39
-25 77 -56 75 -62 205 -217 666 -794 63 -80 124 -154 134 -165 37 -38 148
-179 148 -187 0 -4 122 -8 270 -8 l270 0 108 -86 c128 -102 255 -207 262 -214
3 -3 57 -47 120 -98 63 -51 132 -106 152 -123 20 -17 52 -43 71 -57 19 -15 65
-53 103 -84 l68 -58 502 0 503 0 21 -27 c12 -16 79 -89 149 -163 71 -74 163
-173 206 -220 43 -47 104 -112 136 -145 32 -33 106 -112 164 -175 58 -63 111
-117 116 -118 12 -5 115 83 130 109 15 30 1 59 -52 110 -27 25 -63 64 -80 85
-17 21 -78 89 -137 150 -59 61 -150 158 -202 215 -258 281 -327 351 -362 370
-17 9 -149 12 -514 13 l-491 1 -84 65 c-46 35 -100 79 -120 98 -20 19 -48 41
-62 50 -13 10 -65 51 -114 92 -49 41 -127 104 -172 140 -46 36 -94 75 -107 87
-13 12 -68 58 -122 102 l-97 80 -257 3 -257 3 -38 42 c-21 24 -64 75 -96 115
-86 109 -285 356 -342 425 -27 33 -81 100 -120 149 -38 49 -78 98 -88 109 -26
29 -87 105 -121 152 -17 22 -60 63 -97 92 -72 57 -76 71 -30 96 14 8 46 32 71
54 40 36 43 40 25 46 -11 4 -34 13 -52 21 -17 8 -38 14 -46 14 -9 0 -18 4 -21
9 -3 5 -32 19 -63 31 -32 12 -76 29 -98 37 -22 9 -64 26 -93 39 -29 13 -56 24
-60 24 -4 0 -29 11 -57 25 -70 34 -85 33 -85 -9z"/>
<path d="M3650 4036 c0 -1284 3 -2341 6 -2350 6 -14 63 -16 550 -16 l544 0 0
2350 0 2350 -550 0 -550 0 0 -2334z"/>
<path d="M5105 5032 c-7 -4 -11 -580 -12 -1684 l-1 -1678 534 0 534 0 0 1679
c0 1522 -1 1679 -16 1685 -23 9 -1027 7 -1039 -2z"/>
<path d="M6450 3195 l0 -1505 583 2 582 3 3 1480 c1 814 0 1490 -3 1503 l-5
22 -580 0 -580 0 0 -1505z"/>
<path d="M7960 2695 l0 -1025 530 0 530 0 0 1025 0 1025 -530 0 -530 0 0
-1025z"/>
</g>
</svg>
